<svg width="69" height="502" viewBox="0 0 69 502" fill="none" xmlns="http://www.w3.org/2000/svg">
<line x1="34" y1="84" x2="34" y2="-2.18557e-08" stroke="url(#paint0_linear_31_761)" stroke-opacity="0.5"/>
<mask id="mask0_31_761" style="mask-type:alpha" maskUnits="userSpaceOnUse" x="20" y="116" width="29" height="54">
<path d="M20.1 127.936C20.1 125.723 20.66 123.723 21.78 121.936C22.9 120.176 24.5267 118.789 26.66 117.776C28.82 116.763 31.4333 116.256 34.5 116.256C37.5667 116.256 40.1667 116.763 42.3 117.776C44.46 118.789 46.1 120.176 47.22 121.936C48.34 123.723 48.9 125.723 48.9 127.936C48.9 130.176 48.34 132.176 47.22 133.936C46.1 135.696 44.46 137.083 42.3 138.096C40.1667 139.136 37.5667 139.656 34.5 139.656C31.4333 139.656 28.82 139.136 26.66 138.096C24.5267 137.083 22.9 135.696 21.78 133.936C20.66 132.176 20.1 130.176 20.1 127.936ZM24.62 127.936C24.62 129.243 24.9667 130.376 25.66 131.336C26.38 132.296 27.4733 133.043 28.94 133.576C30.4067 134.136 32.26 134.416 34.5 134.416C36.7667 134.416 38.62 134.136 40.06 133.576C41.5267 133.043 42.6067 132.296 43.3 131.336C44.02 130.376 44.38 129.243 44.38 127.936C44.38 126.683 44.02 125.563 43.3 124.576C42.6067 123.616 41.5267 122.856 40.06 122.296C38.62 121.763 36.7667 121.496 34.5 121.496C32.26 121.496 30.4067 121.763 28.94 122.296C27.4733 122.856 26.38 123.616 25.66 124.576C24.9667 125.563 24.62 126.683 24.62 127.936ZM20.1 158.41C20.1 156.09 20.4467 154.077 21.14 152.37C21.8333 150.663 22.8067 149.343 24.06 148.41C25.34 147.477 26.8333 147.01 28.54 147.01C30.2467 147.01 31.6867 147.463 32.86 148.37C34.0333 149.277 34.9267 150.583 35.54 152.29C36.1533 153.997 36.46 156.037 36.46 158.41C36.46 160.783 36.1533 162.823 35.54 164.53C34.9267 166.263 34.02 167.583 32.82 168.49C31.6467 169.423 30.22 169.89 28.54 169.89C26.8333 169.89 25.34 169.41 24.06 168.45C22.8067 167.517 21.8333 166.183 21.14 164.45C20.4467 162.743 20.1 160.73 20.1 158.41ZM24.18 158.41C24.18 160.33 24.58 161.85 25.38 162.97C26.18 164.09 27.2867 164.65 28.7 164.65C30.0867 164.65 31.18 164.09 31.98 162.97C32.78 161.85 33.18 160.33 33.18 158.41C33.18 156.49 32.78 154.983 31.98 153.89C31.18 152.797 30.0867 152.25 28.7 152.25C27.2867 152.25 26.18 152.797 25.38 153.89C24.58 154.983 24.18 156.49 24.18 158.41ZM33.74 158.41C33.74 156.25 34.02 154.397 34.58 152.85C35.1667 151.303 36.0067 150.103 37.1 149.25C38.22 148.423 39.5533 148.01 41.1 148.01C42.7 148.01 44.0733 148.437 45.22 149.29C46.3933 150.17 47.3 151.397 47.94 152.97C48.58 154.543 48.9 156.357 48.9 158.41C48.9 160.49 48.58 162.317 47.94 163.89C47.3 165.463 46.3933 166.69 45.22 167.57C44.0733 168.45 42.7 168.89 41.1 168.89C39.5533 168.89 38.22 168.463 37.1 167.61C36.0067 166.783 35.1667 165.583 34.58 164.01C34.02 162.437 33.74 160.57 33.74 158.41ZM36.94 158.41C36.94 160.063 37.2867 161.37 37.98 162.33C38.7 163.29 39.66 163.77 40.86 163.77C42.1133 163.77 43.0867 163.277 43.78 162.29C44.4733 161.303 44.82 160.01 44.82 158.41C44.82 156.81 44.4733 155.53 43.78 154.57C43.0867 153.61 42.1133 153.13 40.86 153.13C39.66 153.13 38.7 153.597 37.98 154.53C37.2867 155.49 36.94 156.783 36.94 158.41Z" fill="white"/>
</mask>
<g mask="url(#mask0_31_761)">
<path d="M20.1 127.936C20.1 125.723 20.66 123.723 21.78 121.936C22.9 120.176 24.5267 118.789 26.66 117.776C28.82 116.763 31.4333 116.256 34.5 116.256C37.5667 116.256 40.1667 116.763 42.3 117.776C44.46 118.789 46.1 120.176 47.22 121.936C48.34 123.723 48.9 125.723 48.9 127.936C48.9 130.176 48.34 132.176 47.22 133.936C46.1 135.696 44.46 137.083 42.3 138.096C40.1667 139.136 37.5667 139.656 34.5 139.656C31.4333 139.656 28.82 139.136 26.66 138.096C24.5267 137.083 22.9 135.696 21.78 133.936C20.66 132.176 20.1 130.176 20.1 127.936ZM24.62 127.936C24.62 129.243 24.9667 130.376 25.66 131.336C26.38 132.296 27.4733 133.043 28.94 133.576C30.4067 134.136 32.26 134.416 34.5 134.416C36.7667 134.416 38.62 134.136 40.06 133.576C41.5267 133.043 42.6067 132.296 43.3 131.336C44.02 130.376 44.38 129.243 44.38 127.936C44.38 126.683 44.02 125.563 43.3 124.576C42.6067 123.616 41.5267 122.856 40.06 122.296C38.62 121.763 36.7667 121.496 34.5 121.496C32.26 121.496 30.4067 121.763 28.94 122.296C27.4733 122.856 26.38 123.616 25.66 124.576C24.9667 125.563 24.62 126.683 24.62 127.936ZM20.1 158.41C20.1 156.09 20.4467 154.077 21.14 152.37C21.8333 150.663 22.8067 149.343 24.06 148.41C25.34 147.477 26.8333 147.01 28.54 147.01C30.2467 147.01 31.6867 147.463 32.86 148.37C34.0333 149.277 34.9267 150.583 35.54 152.29C36.1533 153.997 36.46 156.037 36.46 158.41C36.46 160.783 36.1533 162.823 35.54 164.53C34.9267 166.263 34.02 167.583 32.82 168.49C31.6467 169.423 30.22 169.89 28.54 169.89C26.8333 169.89 25.34 169.41 24.06 168.45C22.8067 167.517 21.8333 166.183 21.14 164.45C20.4467 162.743 20.1 160.73 20.1 158.41ZM24.18 158.41C24.18 160.33 24.58 161.85 25.38 162.97C26.18 164.09 27.2867 164.65 28.7 164.65C30.0867 164.65 31.18 164.09 31.98 162.97C32.78 161.85 33.18 160.33 33.18 158.41C33.18 156.49 32.78 154.983 31.98 153.89C31.18 152.797 30.0867 152.25 28.7 152.25C27.2867 152.25 26.18 152.797 25.38 153.89C24.58 154.983 24.18 156.49 24.18 158.41ZM33.74 158.41C33.74 156.25 34.02 154.397 34.58 152.85C35.1667 151.303 36.0067 150.103 37.1 149.25C38.22 148.423 39.5533 148.01 41.1 148.01C42.7 148.01 44.0733 148.437 45.22 149.29C46.3933 150.17 47.3 151.397 47.94 152.97C48.58 154.543 48.9 156.357 48.9 158.41C48.9 160.49 48.58 162.317 47.94 163.89C47.3 165.463 46.3933 166.69 45.22 167.57C44.0733 168.45 42.7 168.89 41.1 168.89C39.5533 168.89 38.22 168.463 37.1 167.61C36.0067 166.783 35.1667 165.583 34.58 164.01C34.02 162.437 33.74 160.57 33.74 158.41ZM36.94 158.41C36.94 160.063 37.2867 161.37 37.98 162.33C38.7 163.29 39.66 163.77 40.86 163.77C42.1133 163.77 43.0867 163.277 43.78 162.29C44.4733 161.303 44.82 160.01 44.82 158.41C44.82 156.81 44.4733 155.53 43.78 154.57C43.0867 153.61 42.1133 153.13 40.86 153.13C39.66 153.13 38.7 153.597 37.98 154.53C37.2867 155.49 36.94 156.783 36.94 158.41Z" fill="white" fill-opacity="0.5"/>
<rect width="1" height="64" transform="matrix(-1 0 0 1 21.5 111)" fill="#081221"/>
<rect width="1" height="64" transform="matrix(-1 0 0 1 25.5 111)" fill="#081221"/>
<rect width="1" height="64" transform="matrix(-1 0 0 1 29.5 111)" fill="#081221"/>
<rect width="1" height="64" transform="matrix(-1 0 0 1 33.5 111)" fill="#081221"/>
<rect width="1" height="64" transform="matrix(-1 0 0 1 37.5 111)" fill="#081221"/>
<rect width="1" height="64" transform="matrix(-1 0 0 1 41.5 111)" fill="#081221"/>
<rect width="1" height="64" transform="matrix(-1 0 0 1 45.5 111)" fill="#081221"/>
<rect width="1" height="64" transform="matrix(-1 0 0 1 49.5 111)" fill="#081221"/>
</g>
<line x1="35" y1="202" x2="35" y2="502" stroke="url(#paint1_linear_31_761)" stroke-opacity="0.5"/>
<defs>
<linearGradient id="paint0_linear_31_761" x1="35" y1="84" x2="35" y2="2.18557e-08" gradientUnits="userSpaceOnUse">
<stop stop-color="white"/>
<stop offset="1" stop-color="white" stop-opacity="0"/>
</linearGradient>
<linearGradient id="paint1_linear_31_761" x1="34" y1="202" x2="34" y2="502" gradientUnits="userSpaceOnUse">
<stop stop-color="white"/>
<stop offset="1" stop-color="white" stop-opacity="0"/>
</linearGradient>
</defs>
</svg>
