<svg width="69" height="499" viewBox="0 0 69 499" fill="none" xmlns="http://www.w3.org/2000/svg">
<line x1="34" y1="84" x2="34" y2="-2.18557e-08" stroke="url(#paint0_linear_31_1513)" stroke-opacity="0.5"/>
<mask id="mask0_31_1513" style="mask-type:alpha" maskUnits="userSpaceOnUse" x="20" y="116" width="29" height="52">
<path d="M20.1 127.803C20.1 125.59 20.66 123.59 21.78 121.803C22.9 120.043 24.5267 118.657 26.66 117.643C28.82 116.63 31.4333 116.123 34.5 116.123C37.5667 116.123 40.1667 116.63 42.3 117.643C44.46 118.657 46.1 120.043 47.22 121.803C48.34 123.59 48.9 125.59 48.9 127.803C48.9 130.043 48.34 132.043 47.22 133.803C46.1 135.563 44.46 136.95 42.3 137.963C40.1667 139.003 37.5667 139.523 34.5 139.523C31.4333 139.523 28.82 139.003 26.66 137.963C24.5267 136.95 22.9 135.563 21.78 133.803C20.66 132.043 20.1 130.043 20.1 127.803ZM24.62 127.803C24.62 129.11 24.9667 130.243 25.66 131.203C26.38 132.163 27.4733 132.91 28.94 133.443C30.4067 134.003 32.26 134.283 34.5 134.283C36.7667 134.283 38.62 134.003 40.06 133.443C41.5267 132.91 42.6067 132.163 43.3 131.203C44.02 130.243 44.38 129.11 44.38 127.803C44.38 126.55 44.02 125.43 43.3 124.443C42.6067 123.483 41.5267 122.723 40.06 122.163C38.62 121.63 36.7667 121.363 34.5 121.363C32.26 121.363 30.4067 121.63 28.94 122.163C27.4733 122.723 26.38 123.483 25.66 124.443C24.9667 125.43 24.62 126.55 24.62 127.803ZM20.1 156.317C20.1 154.344 20.38 152.411 20.94 150.517C21.5267 148.651 22.3267 147.077 23.34 145.797L27.38 147.997C26.5533 149.011 25.8867 150.237 25.38 151.677C24.8733 153.144 24.62 154.664 24.62 156.237C24.62 158.077 25.0067 159.517 25.78 160.557C26.5533 161.624 27.5933 162.157 28.9 162.157C29.78 162.157 30.5533 161.931 31.22 161.477C31.8867 161.051 32.3933 160.277 32.74 159.157C33.0867 158.064 33.26 156.557 33.26 154.637V147.877L48.5 149.317V165.757H44.14V151.237L46.62 153.957L35.22 152.877L37.66 150.157V155.797C37.66 158.571 37.2867 160.797 36.54 162.477C35.82 164.184 34.8067 165.424 33.5 166.197C32.22 166.997 30.7533 167.397 29.1 167.397C27.4733 167.397 25.98 166.997 24.62 166.197C23.26 165.397 22.1667 164.171 21.34 162.517C20.5133 160.891 20.1 158.824 20.1 156.317Z" fill="white"/>
</mask>
<g mask="url(#mask0_31_1513)">
<path d="M20.1 127.803C20.1 125.59 20.66 123.59 21.78 121.803C22.9 120.043 24.5267 118.657 26.66 117.643C28.82 116.63 31.4333 116.123 34.5 116.123C37.5667 116.123 40.1667 116.63 42.3 117.643C44.46 118.657 46.1 120.043 47.22 121.803C48.34 123.59 48.9 125.59 48.9 127.803C48.9 130.043 48.34 132.043 47.22 133.803C46.1 135.563 44.46 136.95 42.3 137.963C40.1667 139.003 37.5667 139.523 34.5 139.523C31.4333 139.523 28.82 139.003 26.66 137.963C24.5267 136.95 22.9 135.563 21.78 133.803C20.66 132.043 20.1 130.043 20.1 127.803ZM24.62 127.803C24.62 129.11 24.9667 130.243 25.66 131.203C26.38 132.163 27.4733 132.91 28.94 133.443C30.4067 134.003 32.26 134.283 34.5 134.283C36.7667 134.283 38.62 134.003 40.06 133.443C41.5267 132.91 42.6067 132.163 43.3 131.203C44.02 130.243 44.38 129.11 44.38 127.803C44.38 126.55 44.02 125.43 43.3 124.443C42.6067 123.483 41.5267 122.723 40.06 122.163C38.62 121.63 36.7667 121.363 34.5 121.363C32.26 121.363 30.4067 121.63 28.94 122.163C27.4733 122.723 26.38 123.483 25.66 124.443C24.9667 125.43 24.62 126.55 24.62 127.803ZM20.1 156.317C20.1 154.344 20.38 152.411 20.94 150.517C21.5267 148.651 22.3267 147.077 23.34 145.797L27.38 147.997C26.5533 149.011 25.8867 150.237 25.38 151.677C24.8733 153.144 24.62 154.664 24.62 156.237C24.62 158.077 25.0067 159.517 25.78 160.557C26.5533 161.624 27.5933 162.157 28.9 162.157C29.78 162.157 30.5533 161.931 31.22 161.477C31.8867 161.051 32.3933 160.277 32.74 159.157C33.0867 158.064 33.26 156.557 33.26 154.637V147.877L48.5 149.317V165.757H44.14V151.237L46.62 153.957L35.22 152.877L37.66 150.157V155.797C37.66 158.571 37.2867 160.797 36.54 162.477C35.82 164.184 34.8067 165.424 33.5 166.197C32.22 166.997 30.7533 167.397 29.1 167.397C27.4733 167.397 25.98 166.997 24.62 166.197C23.26 165.397 22.1667 164.171 21.34 162.517C20.5133 160.891 20.1 158.824 20.1 156.317Z" fill="#E1E5ED" fill-opacity="0.5"/>
<rect width="1" height="64" transform="matrix(-1 0 0 1 24 110)" fill="#022845"/>
<rect width="1" height="64" transform="matrix(-1 0 0 1 28 110)" fill="#022845"/>
<rect width="1" height="64" transform="matrix(-1 0 0 1 32 110)" fill="#022845"/>
<rect width="1" height="64" transform="matrix(-1 0 0 1 36 110)" fill="#022845"/>
<rect width="1" height="64" transform="matrix(-1 0 0 1 40 110)" fill="#022845"/>
<rect width="1" height="64" transform="matrix(-1 0 0 1 44 110)" fill="#022845"/>
<rect width="1" height="64" transform="matrix(-1 0 0 1 48 110)" fill="#022845"/>
</g>
<line x1="35" y1="199" x2="35" y2="499" stroke="url(#paint1_linear_31_1513)" stroke-opacity="0.5"/>
<defs>
<linearGradient id="paint0_linear_31_1513" x1="35" y1="84" x2="35" y2="2.18557e-08" gradientUnits="userSpaceOnUse">
<stop stop-color="#022845"/>
<stop offset="1" stop-color="white" stop-opacity="0"/>
</linearGradient>
<linearGradient id="paint1_linear_31_1513" x1="34" y1="199" x2="34" y2="499" gradientUnits="userSpaceOnUse">
<stop stop-color="#022845"/>
<stop offset="1" stop-color="white" stop-opacity="0"/>
</linearGradient>
</defs>
</svg>
