<svg width="69" height="872" viewBox="0 0 69 872" fill="none" xmlns="http://www.w3.org/2000/svg">
<line x1="34" y1="84" x2="34" y2="-2.18557e-08" stroke="url(#paint0_linear_7_3290)" stroke-opacity="0.5"/>
<mask id="mask0_7_3290" style="mask-type:alpha" maskUnits="userSpaceOnUse" x="16" y="116" width="36" height="50">
<path d="M16.52 130.556C16.52 127.868 17.192 125.468 18.536 123.356C19.912 121.244 21.896 119.58 24.488 118.364C27.112 117.148 30.216 116.54 33.8 116.54C37.384 116.54 40.472 117.148 43.064 118.364C45.688 119.58 47.672 121.244 49.016 123.356C50.392 125.468 51.08 127.868 51.08 130.556C51.08 133.244 50.392 135.644 49.016 137.756C47.672 139.9 45.688 141.58 43.064 142.796C40.472 144.012 37.384 144.62 33.8 144.62C30.216 144.62 27.112 144.012 24.488 142.796C21.896 141.58 19.912 139.9 18.536 137.756C17.192 135.644 16.52 133.244 16.52 130.556ZM21.944 130.556C21.944 132.956 22.936 134.844 24.92 136.22C26.904 137.628 29.864 138.332 33.8 138.332C37.736 138.332 40.696 137.628 42.68 136.22C44.664 134.844 45.656 132.956 45.656 130.556C45.656 128.188 44.664 126.3 42.68 124.892C40.696 123.516 37.736 122.828 33.8 122.828C29.864 122.828 26.904 123.516 24.92 124.892C22.936 126.3 21.944 128.188 21.944 130.556ZM50.6 165.019H17V158.779H45.368V151.675H50.6V165.019Z" fill="white"/>
</mask>
<g mask="url(#mask0_7_3290)">
<path d="M16.52 130.556C16.52 127.868 17.192 125.468 18.536 123.356C19.912 121.244 21.896 119.58 24.488 118.364C27.112 117.148 30.216 116.54 33.8 116.54C37.384 116.54 40.472 117.148 43.064 118.364C45.688 119.58 47.672 121.244 49.016 123.356C50.392 125.468 51.08 127.868 51.08 130.556C51.08 133.244 50.392 135.644 49.016 137.756C47.672 139.9 45.688 141.58 43.064 142.796C40.472 144.012 37.384 144.62 33.8 144.62C30.216 144.62 27.112 144.012 24.488 142.796C21.896 141.58 19.912 139.9 18.536 137.756C17.192 135.644 16.52 133.244 16.52 130.556ZM21.944 130.556C21.944 132.956 22.936 134.844 24.92 136.22C26.904 137.628 29.864 138.332 33.8 138.332C37.736 138.332 40.696 137.628 42.68 136.22C44.664 134.844 45.656 132.956 45.656 130.556C45.656 128.188 44.664 126.3 42.68 124.892C40.696 123.516 37.736 122.828 33.8 122.828C29.864 122.828 26.904 123.516 24.92 124.892C22.936 126.3 21.944 128.188 21.944 130.556ZM50.6 165.019H17V158.779H45.368V151.675H50.6V165.019Z" fill="white" fill-opacity="0.5"/>
<rect width="1" height="64" transform="matrix(-1 0 0 1 19 110)" fill="#081221"/>
<rect width="1" height="64" transform="matrix(-1 0 0 1 23 110)" fill="#081221"/>
<rect width="1" height="64" transform="matrix(-1 0 0 1 27 110)" fill="#081221"/>
<rect width="1" height="64" transform="matrix(-1 0 0 1 31 110)" fill="#081221"/>
<rect width="1" height="64" transform="matrix(-1 0 0 1 35 110)" fill="#081221"/>
<rect width="1" height="64" transform="matrix(-1 0 0 1 39 110)" fill="#081221"/>
<rect width="1" height="64" transform="matrix(-1 0 0 1 43 110)" fill="#081221"/>
<rect width="1" height="64" transform="matrix(-1 0 0 1 47 110)" fill="#081221"/>
<rect width="1" height="64" transform="matrix(-1 0 0 1 51 110)" fill="#081221"/>
</g>
<line x1="35" y1="200" x2="35" y2="872" stroke="url(#paint1_linear_7_3290)" stroke-opacity="0.5"/>
<defs>
<linearGradient id="paint0_linear_7_3290" x1="35" y1="84" x2="35" y2="2.18557e-08" gradientUnits="userSpaceOnUse">
<stop stop-color="white"/>
<stop offset="1" stop-color="white" stop-opacity="0"/>
</linearGradient>
<linearGradient id="paint1_linear_7_3290" x1="34" y1="200" x2="34" y2="872" gradientUnits="userSpaceOnUse">
<stop stop-color="white"/>
<stop offset="1" stop-color="white" stop-opacity="0"/>
</linearGradient>
</defs>
</svg>
