<svg width="69" height="503" viewBox="0 0 69 503" fill="none" xmlns="http://www.w3.org/2000/svg">
<line x1="34" y1="84" x2="34" y2="-2.18557e-08" stroke="url(#paint0_linear_31_741)" stroke-opacity="0.5"/>
<mask id="mask0_31_741" style="mask-type:alpha" maskUnits="userSpaceOnUse" x="20" y="116" width="29" height="57">
<path d="M20.1 127.909C20.1 125.695 20.66 123.695 21.78 121.909C22.9 120.149 24.5267 118.762 26.66 117.749C28.82 116.735 31.4333 116.229 34.5 116.229C37.5667 116.229 40.1667 116.735 42.3 117.749C44.46 118.762 46.1 120.149 47.22 121.909C48.34 123.695 48.9 125.695 48.9 127.909C48.9 130.149 48.34 132.149 47.22 133.909C46.1 135.669 44.46 137.055 42.3 138.069C40.1667 139.109 37.5667 139.629 34.5 139.629C31.4333 139.629 28.82 139.109 26.66 138.069C24.5267 137.055 22.9 135.669 21.78 133.909C20.66 132.149 20.1 130.149 20.1 127.909ZM24.62 127.909C24.62 129.215 24.9667 130.349 25.66 131.309C26.38 132.269 27.4733 133.015 28.94 133.549C30.4067 134.109 32.26 134.389 34.5 134.389C36.7667 134.389 38.62 134.109 40.06 133.549C41.5267 133.015 42.6067 132.269 43.3 131.309C44.02 130.349 44.38 129.215 44.38 127.909C44.38 126.655 44.02 125.535 43.3 124.549C42.6067 123.589 41.5267 122.829 40.06 122.269C38.62 121.735 36.7667 121.469 34.5 121.469C32.26 121.469 30.4067 121.735 28.94 122.269C27.4733 122.829 26.38 123.589 25.66 124.549C24.9667 125.535 24.62 126.655 24.62 127.909ZM26.86 146.743H30.46L48.5 160.543V166.103L30.46 152.503L31.26 149.903V172.103H26.86L26.86 146.743ZM20.5 162.103H26.86L31.26 162.263H36.9V167.143H20.5V162.103Z" fill="white"/>
</mask>
<g mask="url(#mask0_31_741)">
<path d="M20.1 127.909C20.1 125.695 20.66 123.695 21.78 121.909C22.9 120.149 24.5267 118.762 26.66 117.749C28.82 116.735 31.4333 116.229 34.5 116.229C37.5667 116.229 40.1667 116.735 42.3 117.749C44.46 118.762 46.1 120.149 47.22 121.909C48.34 123.695 48.9 125.695 48.9 127.909C48.9 130.149 48.34 132.149 47.22 133.909C46.1 135.669 44.46 137.055 42.3 138.069C40.1667 139.109 37.5667 139.629 34.5 139.629C31.4333 139.629 28.82 139.109 26.66 138.069C24.5267 137.055 22.9 135.669 21.78 133.909C20.66 132.149 20.1 130.149 20.1 127.909ZM24.62 127.909C24.62 129.215 24.9667 130.349 25.66 131.309C26.38 132.269 27.4733 133.015 28.94 133.549C30.4067 134.109 32.26 134.389 34.5 134.389C36.7667 134.389 38.62 134.109 40.06 133.549C41.5267 133.015 42.6067 132.269 43.3 131.309C44.02 130.349 44.38 129.215 44.38 127.909C44.38 126.655 44.02 125.535 43.3 124.549C42.6067 123.589 41.5267 122.829 40.06 122.269C38.62 121.735 36.7667 121.469 34.5 121.469C32.26 121.469 30.4067 121.735 28.94 122.269C27.4733 122.829 26.38 123.589 25.66 124.549C24.9667 125.535 24.62 126.655 24.62 127.909ZM26.86 146.743H30.46L48.5 160.543V166.103L30.46 152.503L31.26 149.903V172.103H26.86L26.86 146.743ZM20.5 162.103H26.86L31.26 162.263H36.9V167.143H20.5V162.103Z" fill="white" fill-opacity="0.5"/>
<rect width="1" height="64" transform="matrix(-1 0 0 1 21.5 111)" fill="#081221"/>
<rect width="1" height="64" transform="matrix(-1 0 0 1 25.5 111)" fill="#081221"/>
<rect width="1" height="64" transform="matrix(-1 0 0 1 29.5 111)" fill="#081221"/>
<rect width="1" height="64" transform="matrix(-1 0 0 1 33.5 111)" fill="#081221"/>
<rect width="1" height="64" transform="matrix(-1 0 0 1 37.5 111)" fill="#081221"/>
<rect width="1" height="64" transform="matrix(-1 0 0 1 41.5 111)" fill="#081221"/>
<rect width="1" height="64" transform="matrix(-1 0 0 1 45.5 111)" fill="#081221"/>
<rect width="1" height="64" transform="matrix(-1 0 0 1 49.5 111)" fill="#081221"/>
</g>
<line x1="35" y1="203" x2="35" y2="503" stroke="url(#paint1_linear_31_741)" stroke-opacity="0.5"/>
<defs>
<linearGradient id="paint0_linear_31_741" x1="35" y1="84" x2="35" y2="2.18557e-08" gradientUnits="userSpaceOnUse">
<stop stop-color="white"/>
<stop offset="1" stop-color="white" stop-opacity="0"/>
</linearGradient>
<linearGradient id="paint1_linear_31_741" x1="34" y1="203" x2="34" y2="503" gradientUnits="userSpaceOnUse">
<stop stop-color="white"/>
<stop offset="1" stop-color="white" stop-opacity="0"/>
</linearGradient>
</defs>
</svg>
