<svg width="260" height="39" viewBox="0 0 260 39" fill="none" xmlns="http://www.w3.org/2000/svg">
<path d="M13.3685 30.4075H10.2227V37.3804H13.3685V30.4075Z" fill="#F6F7FC"/>
<path fill-rule="evenodd" clip-rule="evenodd" d="M13.3685 12.9777V17.3262L10.2227 19.7482V12.9777H13.3685Z" fill="#F6F7FC"/>
<path d="M13.3685 1.20434H10.2227V8.17727H13.3685V1.20434Z" fill="#F6F7FC"/>
<path d="M18.0892 30.4075H14.9434V37.3804H18.0892V30.4075Z" fill="#F6F7FC"/>
<path fill-rule="evenodd" clip-rule="evenodd" d="M18.0886 22.126V25.6076H14.9434V23.6032L16.516 22.126H18.0886Z" fill="#F6F7FC"/>
<path d="M18.0892 12.9777H14.9434V17.3262H18.0892V12.9777Z" fill="#F6F7FC"/>
<path d="M18.0892 1.20434H14.9434V8.17727H18.0892V1.20434Z" fill="#F6F7FC"/>
<path d="M22.806 30.4075H19.6602V37.3804H22.806V30.4075Z" fill="#F6F7FC"/>
<path d="M22.806 22.126H19.6602V25.607H22.806V22.126Z" fill="#F6F7FC"/>
<path d="M22.806 12.9777H19.6602V17.3262H22.806V12.9777Z" fill="#F6F7FC"/>
<path d="M22.806 1.20434H19.6602V8.17727H22.806V1.20434Z" fill="#F6F7FC"/>
<path d="M27.525 30.4075H24.3792V37.3804H27.525V30.4075Z" fill="#F6F7FC"/>
<path d="M27.525 22.126H24.3792V25.607H27.525V22.126Z" fill="#F6F7FC"/>
<path d="M27.525 12.9777H24.3792V17.3262H27.525V12.9777Z" fill="#F6F7FC"/>
<path d="M27.525 1.20434H24.3792V8.17727H27.525V1.20434Z" fill="#F6F7FC"/>
<path d="M32.2435 30.4075H29.0977V37.3804H32.2435V30.4075Z" fill="#F6F7FC"/>
<path d="M32.2435 22.126H29.0977V25.607H32.2435V22.126Z" fill="#F6F7FC"/>
<path d="M32.2435 12.9777H29.0977V17.3262H32.2435V12.9777Z" fill="#F6F7FC"/>
<path d="M32.2435 1.20434H29.0977V8.17727H32.2435V1.20434Z" fill="#F6F7FC"/>
<path d="M36.9616 30.4075H33.8164V37.3804H36.9616V30.4075Z" fill="#F6F7FC"/>
<path d="M36.9616 22.126H33.8164V25.607H36.9616V22.126Z" fill="#F6F7FC"/>
<path fill-rule="evenodd" clip-rule="evenodd" d="M36.9622 14.4544V15.8495L35.389 17.3262H33.8164V12.9777H35.389L36.9622 14.4544Z" fill="#F6F7FC"/>
<path d="M36.9616 1.20434H33.8164V8.17727H36.9616V1.20434Z" fill="#F6F7FC"/>
<path d="M41.6807 30.4075H38.5349V37.3804H41.6807V30.4075Z" fill="#F6F7FC"/>
<path fill-rule="evenodd" clip-rule="evenodd" d="M41.6807 20.0333V25.6076H38.5349V22.1261L41.6807 20.0333Z" fill="#F6F7FC"/>
<path fill-rule="evenodd" clip-rule="evenodd" d="M38.5349 1.20434H41.6807V10.5993L38.5349 8.17785V1.20434Z" fill="#F6F7FC"/>
<path fill-rule="evenodd" clip-rule="evenodd" d="M43.2539 1.20434H46.4003V11.8101V26.7747V37.3804H43.2539V30.4075V27.0842V18.9872V11.8101V1.20434Z" fill="#F6F7FC"/>
<path fill-rule="evenodd" clip-rule="evenodd" d="M51.1185 30.4075V37.3804H47.9727V27.9854L51.1185 30.4075Z" fill="#F6F7FC"/>
<path fill-rule="evenodd" clip-rule="evenodd" d="M47.9727 1.20434H51.1185V8.17727L47.9727 10.5993V1.20434Z" fill="#F6F7FC"/>
<path d="M55.8372 30.4075H52.6914V37.3804H55.8372V30.4075Z" fill="#F6F7FC"/>
<path fill-rule="evenodd" clip-rule="evenodd" d="M55.8372 12.9777V25.607H54.2646L52.6914 24.1304V14.4544L54.2646 12.9777H55.8372Z" fill="#F6F7FC"/>
<path d="M55.8372 1.20434H52.6914V8.17727H55.8372V1.20434Z" fill="#F6F7FC"/>
<path d="M60.556 30.4075H57.4102V37.3804H60.556V30.4075Z" fill="#F6F7FC"/>
<path d="M60.556 12.9777H57.4102V25.607H60.556V12.9777Z" fill="#F6F7FC"/>
<path d="M60.556 1.20434H57.4102V8.17727H60.556V1.20434Z" fill="#F6F7FC"/>
<path d="M65.2747 30.4075H62.1289V37.3804H65.2747V30.4075Z" fill="#F6F7FC"/>
<path d="M65.2747 12.9777H62.1289V25.607H65.2747V12.9777Z" fill="#F6F7FC"/>
<path d="M65.2747 1.20434H62.1289V8.17727H65.2747V1.20434Z" fill="#F6F7FC"/>
<path d="M69.9935 30.4075H66.8477V37.3804H69.9935V30.4075Z" fill="#F6F7FC"/>
<path d="M69.9935 12.9777H66.8477V25.607H69.9935V12.9777Z" fill="#F6F7FC"/>
<path d="M69.9935 1.20434H66.8477V8.17727H69.9935V1.20434Z" fill="#F6F7FC"/>
<path d="M74.7122 30.4075H71.5664V37.3804H74.7122V30.4075Z" fill="#F6F7FC"/>
<path fill-rule="evenodd" clip-rule="evenodd" d="M74.7116 14.4544V24.1304L73.139 25.607H71.5664V12.9777H73.139L74.7116 14.4544Z" fill="#F6F7FC"/>
<path d="M74.7122 1.20434H71.5664V8.17727H74.7122V1.20434Z" fill="#F6F7FC"/>
<path fill-rule="evenodd" clip-rule="evenodd" d="M79.431 27.9854V37.3804H76.2852V30.4075L79.431 27.9854Z" fill="#F6F7FC"/>
<path fill-rule="evenodd" clip-rule="evenodd" d="M76.2852 1.20434H79.431V10.5993L76.2852 8.17727V1.20434Z" fill="#F6F7FC"/>
<path fill-rule="evenodd" clip-rule="evenodd" d="M81.002 1.20434H84.1478V37.3804H81.002V26.7747V11.8101V1.20434Z" fill="#F6F7FC"/>
<path fill-rule="evenodd" clip-rule="evenodd" d="M0 35.4017H0.786599V3.18306H0V0H4.71844V3.18306H3.93242V35.4017H4.71844V38.5847H0V35.4017Z" fill="#F6F7FC"/>
<path fill-rule="evenodd" clip-rule="evenodd" d="M84.9353 35.4017H85.7213V3.18306H84.9353V0H89.6537V3.18306H88.8677V35.4017H89.6537V38.5847H84.9353V35.4017Z" fill="#F6F7FC"/>
<path fill-rule="evenodd" clip-rule="evenodd" d="M5.50586 1.20434H8.65168V8.17727V11.5011V20.9589V30.4075V37.3804H5.50586V1.20434Z" fill="#F6F7FC"/>
<path d="M125.672 23.7388C126.148 23.7388 126.495 23.6411 126.711 23.4467C126.927 23.2518 127.036 22.9598 127.036 22.5705V16.0148C127.036 15.625 126.927 15.3329 126.711 15.1386C126.495 14.9442 126.148 14.8465 125.672 14.8465H117.235V23.7388H125.672ZM110.841 23.7388V14.8459H102.403C101.927 14.8459 101.586 14.9437 101.381 15.138C101.176 15.3329 101.073 15.625 101.073 16.0142V22.57C101.073 22.9598 101.176 23.2518 101.381 23.4462C101.586 23.6405 101.927 23.7382 102.403 23.7382L110.841 23.7388ZM110.841 31.5274V29.1909H101.397C99.1474 29.1909 97.4648 28.715 96.3506 27.7626C95.2365 26.8107 94.6797 25.4476 94.6797 23.6737V14.9111C94.6797 13.1372 95.2365 11.774 96.3506 10.8216C97.4648 9.86974 99.1474 9.39383 101.397 9.39383H110.841V7.0573H117.235V9.39383H126.711C128.939 9.39383 130.611 9.86974 131.725 10.8216C132.839 11.774 133.396 13.1372 133.396 14.9111V23.6737C133.396 25.4476 132.839 26.8107 131.725 27.7626C130.611 28.715 128.939 29.1909 126.711 29.1909H117.235V31.5274H110.841Z" fill="#F6F7FC"/>
<path d="M159.426 8.09582H165.429V11.2114L155.077 25.7833C154.211 26.9952 153.368 27.979 152.545 28.7365C151.723 29.494 150.728 30.0834 149.56 30.5052C148.391 30.927 146.974 31.1382 145.308 31.1382H139.434V25.5564H144.692C145.168 25.5564 145.563 25.497 145.876 25.3778C146.19 25.2591 146.455 25.0694 146.672 24.8099L147.028 24.4207L135.896 11.2114V8.09582H142.096L151.28 19.8116H151.669L159.426 8.09582Z" fill="#F6F7FC"/>
<path d="M184.382 30.8136H178.021V13.8726H166.922V8.09582H195.481V11.8281L193.404 13.8726H184.382V30.8136Z" fill="#F6F7FC"/>
<path d="M219.335 25.4586C219.811 25.4586 220.157 25.3615 220.374 25.1666C220.59 24.9717 220.698 24.6802 220.698 24.2904V14.619C220.698 14.2298 220.59 13.9377 220.374 13.7428C220.157 13.5479 219.811 13.4508 219.335 13.4508H205.802C205.326 13.4508 204.986 13.5479 204.78 13.7428C204.574 13.9377 204.471 14.2298 204.471 14.619V24.2904C204.471 24.6796 204.574 24.9717 204.78 25.1666C204.986 25.3615 205.326 25.4586 205.802 25.4586H219.335ZM204.796 31.1382C202.546 31.1382 200.863 30.6623 199.749 29.7099C198.635 28.7581 198.078 27.3949 198.078 25.621V13.2884C198.078 11.5139 198.635 10.1508 199.749 9.19893C200.863 8.2471 202.546 7.7706 204.796 7.7706H220.374C222.603 7.7706 224.274 8.24652 225.388 9.19893C226.502 10.1508 227.059 11.5139 227.059 13.2884V25.621C227.059 27.3949 226.502 28.7581 225.388 29.7099C224.274 30.6617 222.602 31.1382 220.374 31.1382H204.796Z" fill="#F6F7FC"/>
<path d="M252.048 25.5558C252.546 25.5558 252.897 25.4639 253.103 25.2794C253.308 25.0956 253.411 24.8093 253.411 24.4195V22.7643C253.411 22.3751 253.303 22.083 253.087 21.8881C252.87 21.6932 252.524 21.596 252.048 21.596H238.352V25.5552L252.048 25.5558ZM251.302 16.891C251.778 16.891 252.118 16.7932 252.324 16.5989C252.529 16.404 252.632 16.123 252.632 15.7553V14.4893C252.632 14.1 252.529 13.8138 252.324 13.6294C252.118 13.4455 251.777 13.3536 251.302 13.3536H238.352V16.891H251.302ZM231.992 30.8136V8.09582H252.535C254.785 8.09582 256.468 8.57174 257.582 9.52357C258.696 10.476 259.253 11.8392 259.253 13.6131V14.2624C259.253 15.6034 258.934 16.653 258.296 17.4105C257.657 18.1674 256.927 18.6329 256.105 18.8057V19.0658C256.711 19.1519 257.312 19.3846 257.906 19.7633C258.502 20.1421 258.999 20.6774 259.399 21.3697C259.8 22.0621 260 22.8946 260 23.8686V25.2969C260 27.0708 259.443 28.434 258.329 29.3864C257.215 30.3382 255.532 30.8141 253.282 30.8141L231.992 30.8136Z" fill="#F6F7FC"/>
<path d="M95.7764 37.7237H94.6797V34.7047H95.7764V35.7484H96.6671L97.623 34.7047H98.6133V35.2207L97.623 36.1819L98.6901 37.2082V37.7237H97.6696L96.6729 36.6508H95.7764V37.7237Z" fill="#F6F7FC"/>
<path d="M105.081 36.862C105.238 36.862 105.316 36.7974 105.316 36.6688V35.7601C105.316 35.6309 105.238 35.5669 105.081 35.5669H103.715C103.559 35.5669 103.481 35.6315 103.481 35.7601V36.6688C103.481 36.798 103.559 36.862 103.715 36.862H105.081ZM103.458 37.7824C103.125 37.7824 102.864 37.6975 102.672 37.5276C102.481 37.3577 102.385 37.1337 102.385 36.8562V35.5727C102.385 35.2952 102.48 35.0712 102.672 34.9013C102.864 34.7314 103.125 34.6459 103.458 34.6459H105.339C105.671 34.6459 105.933 34.7309 106.125 34.9013C106.316 35.0712 106.412 35.2952 106.412 35.5727V36.8562C106.412 37.1337 106.316 37.3571 106.125 37.5276C105.933 37.6975 105.671 37.7824 105.339 37.7824H103.458Z" fill="#F6F7FC"/>
<path d="M111.397 37.7237H110.301V34.7047H111.397V35.7484H113.156V34.7047H114.252V37.7237H113.156V36.6688H111.397V37.7237Z" fill="#F6F7FC"/>
<path d="M120.439 37.7237H119.343V35.6606H117.947V34.7047H121.834V35.3319L121.506 35.6606H120.439V37.7237Z" fill="#F6F7FC"/>
<path d="M126.478 35.877H128.255V35.6425C128.255 35.5134 128.177 35.4494 128.02 35.4494H126.713C126.556 35.4494 126.478 35.514 126.478 35.6425V35.877ZM126.455 37.7237C126.123 37.7237 125.861 37.6387 125.67 37.4688C125.478 37.2989 125.383 37.075 125.383 36.7974V35.5721C125.383 35.2946 125.478 35.0706 125.67 34.9008C125.861 34.7309 126.123 34.6453 126.455 34.6453H128.278C128.61 34.6453 128.872 34.7303 129.063 34.9008C129.255 35.0706 129.35 35.2946 129.35 35.5721V36.5513H126.478V36.727C126.478 36.8562 126.556 36.9202 126.712 36.9202H129.186V37.7237H126.455Z" fill="#F6F7FC"/>
<path d="M134.446 34.2654C134.242 34.2654 134.082 34.2183 133.966 34.1246C133.848 34.0309 133.79 33.9076 133.79 33.7552V33.3095H134.74V33.4736C134.74 33.5207 134.753 33.5539 134.778 33.5731C134.803 33.5928 134.845 33.6022 134.903 33.6022H135.648C135.707 33.6022 135.749 33.5923 135.774 33.5731C135.8 33.5539 135.812 33.5207 135.812 33.4736V33.3095H136.762V33.7552C136.762 33.9076 136.703 34.0309 136.586 34.1246C136.468 34.2183 136.307 34.2654 136.1 34.2654H134.446ZM134.334 37.7237H133.238V34.7047H134.334V35.7833L134.241 36.4751H134.294L136.211 34.7047H137.307V37.7237H136.211V36.645L136.316 35.9532H136.257L134.334 37.7237Z" fill="#F6F7FC"/>
<path d="M142.35 37.7237H141.254V34.7047H142.35V35.7484H144.109V34.7047H145.205V37.7237H144.109V36.6688H142.35V37.7237Z" fill="#F6F7FC"/>
<path d="M150.189 35.877H151.966V35.6425C151.966 35.5134 151.888 35.4494 151.731 35.4494H150.424C150.267 35.4494 150.189 35.514 150.189 35.6425V35.877ZM150.166 37.7237C149.834 37.7237 149.572 37.6387 149.381 37.4688C149.189 37.2989 149.094 37.075 149.094 36.7974V35.5721C149.094 35.2946 149.189 35.0706 149.381 34.9008C149.572 34.7309 149.834 34.6453 150.166 34.6453H151.989C152.321 34.6453 152.583 34.7303 152.774 34.9008C152.966 35.0706 153.061 35.2946 153.061 35.5721V36.5513H150.189V36.727C150.189 36.8562 150.267 36.9202 150.423 36.9202H152.897V37.7237H150.166Z" fill="#F6F7FC"/>
<path d="M159.63 36.7858C159.787 36.7858 159.865 36.7212 159.865 36.5921V35.7769C159.865 35.6478 159.787 35.5832 159.63 35.5832H158.393C158.28 35.5832 158.194 35.6059 158.136 35.6507C158.077 35.6955 158.048 35.7612 158.048 35.8473V36.7852L159.63 36.7858ZM156.951 38.7203V34.7047H157.784L157.942 35.0683H157.977C158.176 34.7867 158.481 34.6459 158.892 34.6459H159.889C160.221 34.6459 160.483 34.7309 160.674 34.9013C160.866 35.0712 160.962 35.2952 160.962 35.5727V36.798C160.962 37.0755 160.866 37.2995 160.674 37.4694C160.483 37.6393 160.221 37.7242 159.889 37.7242H158.048V38.7209H156.951V38.7203Z" fill="#F6F7FC"/>
<path d="M165.946 37.7237H164.85V34.7047H165.946V35.7484H167.705V34.7047H168.801V37.7237H167.705V36.6688H165.946V37.7237Z" fill="#F6F7FC"/>
<path d="M175.175 36.9208C175.316 36.9208 175.387 36.8702 175.387 36.7683V36.5222C175.387 36.4163 175.316 36.364 175.175 36.364H173.845V36.9208H175.175ZM178.106 37.7237H177.01V34.7047H178.106V37.7237ZM172.748 37.7237V34.7047H173.844V35.5663H175.451C175.771 35.5663 176.023 35.6472 176.207 35.8095C176.391 35.9718 176.483 36.1836 176.483 36.4454V36.8381C176.483 37.1 176.391 37.3129 176.207 37.477C176.023 37.641 175.771 37.7231 175.451 37.7231L172.748 37.7237Z" fill="#F6F7FC"/>
<path d="M183.09 35.877H184.866V35.6425C184.866 35.5134 184.788 35.4494 184.631 35.4494H183.324C183.168 35.4494 183.09 35.514 183.09 35.6425V35.877ZM183.066 37.7237C182.734 37.7237 182.472 37.6387 182.281 37.4688C182.09 37.2989 181.994 37.075 181.994 36.7974V35.5721C181.994 35.2946 182.09 35.0706 182.281 34.9008C182.472 34.7309 182.734 34.6453 183.066 34.6453H184.889C185.221 34.6453 185.483 34.7303 185.675 34.9008C185.866 35.0706 185.961 35.2946 185.961 35.5721V36.5513H183.089V36.727C183.089 36.8562 183.167 36.9202 183.324 36.9202H185.797V37.7237H183.066Z" fill="#F6F7FC"/>
<path d="M194.498 37.7237H193.402V34.7047H197.353V37.7237H196.257V35.6606H194.498V37.7237Z" fill="#F6F7FC"/>
<path d="M202.34 35.877H204.116V35.6425C204.116 35.5134 204.038 35.4494 203.881 35.4494H202.574C202.418 35.4494 202.34 35.514 202.34 35.6425V35.877ZM202.316 37.7237C201.984 37.7237 201.722 37.6387 201.531 37.4688C201.34 37.2989 201.244 37.075 201.244 36.7974V35.5721C201.244 35.2946 201.34 35.0706 201.531 34.9008C201.722 34.7309 201.984 34.6453 202.316 34.6453H204.139C204.471 34.6453 204.733 34.7303 204.925 34.9008C205.116 35.0706 205.212 35.2946 205.212 35.5721V36.5513H202.34V36.727C202.34 36.8562 202.418 36.9202 202.574 36.9202H205.048V37.7237H202.316Z" fill="#F6F7FC"/>
<path d="M211.779 36.7858C211.935 36.7858 212.013 36.7212 212.013 36.5921V35.7769C212.013 35.6478 211.935 35.5832 211.779 35.5832H210.542C210.428 35.5832 210.343 35.6059 210.284 35.6507C210.225 35.6955 210.196 35.7612 210.196 35.8473V36.7852L211.779 36.7858ZM209.1 38.7203V34.7047H209.932L210.09 35.0683H210.126C210.325 34.7867 210.63 34.6459 211.041 34.6459H212.037C212.369 34.6459 212.631 34.7309 212.823 34.9013C213.014 35.0712 213.11 35.2952 213.11 35.5727V36.798C213.11 37.0755 213.014 37.2995 212.823 37.4694C212.631 37.6393 212.369 37.7242 212.037 37.7242H210.196V38.7209H209.1V38.7203Z" fill="#F6F7FC"/>
<path d="M218.035 35.877H219.811V35.6425C219.811 35.5134 219.733 35.4494 219.577 35.4494H218.269C218.113 35.4494 218.035 35.514 218.035 35.6425V35.877ZM218.012 37.7237C217.68 37.7237 217.418 37.6387 217.226 37.4688C217.035 37.2989 216.939 37.075 216.939 36.7974V35.5721C216.939 35.2946 217.035 35.0706 217.226 34.9008C217.418 34.7309 217.68 34.6453 218.012 34.6453H219.835C220.167 34.6453 220.429 34.7303 220.621 34.9008C220.812 35.0706 220.907 35.2946 220.907 35.5721V36.5513H218.035V36.727C218.035 36.8562 218.113 36.9202 218.269 36.9202H220.743V37.7237H218.012Z" fill="#F6F7FC"/>
<path d="M227.411 36.9795C227.552 36.9795 227.623 36.9307 227.623 36.8329V36.6979C227.623 36.6508 227.605 36.6142 227.57 36.5868C227.535 36.5595 227.482 36.5455 227.411 36.5455H225.893V36.9795H227.411ZM227.335 35.8834C227.402 35.8834 227.453 35.87 227.491 35.8421C227.528 35.8148 227.546 35.7775 227.546 35.7304V35.5954C227.546 35.5483 227.528 35.5122 227.491 35.4872C227.453 35.4616 227.402 35.4494 227.335 35.4494H225.893V35.8834H227.335ZM224.797 37.7237V34.7047H227.705C227.99 34.7047 228.221 34.7722 228.397 34.9071C228.572 35.0421 228.661 35.219 228.661 35.4377V35.596C228.661 35.7484 228.626 35.8724 228.555 35.9684C228.485 36.0644 228.381 36.1278 228.245 36.1586V36.2057C228.39 36.2406 228.508 36.3134 228.6 36.4227C228.691 36.5321 228.737 36.663 228.737 36.8155V36.9912C228.737 37.2099 228.651 37.3868 228.477 37.5218C228.303 37.6567 228.073 37.7242 227.788 37.7242H224.797V37.7237Z" fill="#F6F7FC"/>
<path d="M235.198 36.862C235.355 36.862 235.433 36.7974 235.433 36.6688V35.7601C235.433 35.6309 235.355 35.5669 235.198 35.5669H233.832C233.675 35.5669 233.598 35.6315 233.598 35.7601V36.6688C233.598 36.798 233.675 36.862 233.832 36.862H235.198ZM233.574 37.7824C233.242 37.7824 232.98 37.6975 232.789 37.5276C232.597 37.3577 232.502 37.1337 232.502 36.8562V35.5727C232.502 35.2952 232.597 35.0712 232.789 34.9013C232.98 34.7314 233.242 34.6459 233.574 34.6459H235.456C235.788 34.6459 236.05 34.7309 236.241 34.9013C236.433 35.0712 236.529 35.2952 236.529 35.5727V36.8562C236.529 37.1337 236.433 37.3571 236.241 37.5276C236.05 37.6975 235.788 37.7824 235.456 37.7824H233.574Z" fill="#F6F7FC"/>
<path d="M240.164 37.7237V36.9202H242.602C242.743 36.9202 242.814 36.8713 242.814 36.7736V36.709C242.814 36.6113 242.743 36.5624 242.602 36.5624H241.102V35.859H242.52C242.661 35.859 242.732 35.8101 242.732 35.7124V35.6478C242.732 35.5541 242.661 35.507 242.52 35.507H240.533L240.222 35.1905V34.7041H242.896C243.181 34.7041 243.411 34.7716 243.584 34.9066C243.758 35.0415 243.845 35.2184 243.845 35.4372V35.5954C243.845 35.9044 243.708 36.0917 243.435 36.158V36.2052C243.579 36.2401 243.698 36.3128 243.789 36.4222C243.881 36.5315 243.927 36.6625 243.927 36.8149V36.9906C243.927 37.2094 243.84 37.3862 243.667 37.5212C243.493 37.6562 243.263 37.7237 242.978 37.7237H240.164Z" fill="#F6F7FC"/>
<path d="M248.842 37.7237H247.746V34.7047H248.842V35.7484H249.734L250.689 34.7047H251.68V35.2207L250.689 36.1819L251.756 37.2082V37.7237H250.736L249.739 36.6508H248.842V37.7237Z" fill="#F6F7FC"/>
<path d="M256.606 37.7237H255.51V34.7047H256.606V35.7833L256.512 36.4751H256.565L258.482 34.7047H259.578V37.7237H258.482V36.6456L258.588 35.9532H258.529L256.606 37.7237Z" fill="#F6F7FC"/>
</svg>
