<svg width="25" height="25" viewBox="0 0 25 25" fill="none" xmlns="http://www.w3.org/2000/svg">
<g id="ri:whatsapp-fill">
<path id="Vector" d="M13.5 2C19.2992 2 24 6.70085 24 12.5C24 18.2991 19.2992 23 13.5 23C11.6444 23.0032 9.82142 22.5121 8.21851 21.5772L3.00422 23L4.42382 17.7836C3.48822 16.1802 2.99676 14.3564 3.00002 12.5C3.00002 6.70085 7.70086 2 13.5 2ZM9.92161 7.565L9.71161 7.5734C9.57584 7.58275 9.44318 7.61841 9.32101 7.6784C9.20717 7.74298 9.1032 7.82361 9.01231 7.9178C8.88631 8.03645 8.81491 8.13935 8.73826 8.2391C8.34989 8.74404 8.14078 9.36397 8.14396 10.001C8.14606 10.5155 8.28046 11.0163 8.49046 11.4846C8.91991 12.4317 9.62656 13.4345 10.559 14.3637C10.7837 14.5874 11.0042 14.8121 11.2415 15.021C12.4001 16.041 13.7807 16.7766 15.2735 17.1693L15.8699 17.2607C16.0641 17.2712 16.2584 17.2565 16.4537 17.247C16.7594 17.2309 17.0579 17.1481 17.3283 17.0045C17.4657 16.9335 17.5999 16.8564 17.7305 16.7735C17.7305 16.7735 17.7749 16.7434 17.8617 16.679C18.0035 16.574 18.0906 16.4994 18.2082 16.3766C18.2964 16.2856 18.3699 16.1799 18.4287 16.0595C18.5106 15.8883 18.5925 15.5618 18.6261 15.2898C18.6513 15.0819 18.644 14.9685 18.6408 14.8982C18.6366 14.7858 18.5432 14.6693 18.4413 14.6199L17.8302 14.3459C17.8302 14.3459 16.9167 13.9479 16.3581 13.6938C16.2996 13.6684 16.237 13.6538 16.1733 13.6508C16.1015 13.6433 16.0288 13.6513 15.9604 13.6743C15.8919 13.6973 15.8291 13.7348 15.7764 13.7841C15.7712 13.782 15.7008 13.8419 14.9417 14.7617C14.8981 14.8202 14.8381 14.8645 14.7693 14.8888C14.7004 14.9131 14.6259 14.9164 14.5553 14.8982C14.4868 14.88 14.4198 14.8568 14.3547 14.8289C14.2245 14.7743 14.1794 14.7533 14.0901 14.7155C13.4873 14.4529 12.9293 14.0975 12.4364 13.6623C12.3041 13.5468 12.1812 13.4208 12.0552 13.299C11.6422 12.9034 11.2821 12.4559 10.9842 11.9676L10.9223 11.8679C10.8784 11.8005 10.8425 11.7283 10.8152 11.6526C10.7753 11.4983 10.8792 11.3744 10.8792 11.3744C10.8792 11.3744 11.1344 11.0951 11.253 10.9439C11.3685 10.7969 11.4662 10.6541 11.5292 10.5522C11.6531 10.3527 11.6919 10.148 11.6268 9.98944C11.3328 9.27125 11.029 8.5569 10.7154 7.8464C10.6535 7.7057 10.4697 7.6049 10.3028 7.58495C10.2461 7.57795 10.1894 7.57235 10.1327 7.56815C9.99168 7.56006 9.85031 7.56146 9.70951 7.57235L9.92161 7.565Z" fill="#5AC9FF"/>
</g>
</svg>
