<svg width="69" height="881" viewBox="0 0 69 881" fill="none" xmlns="http://www.w3.org/2000/svg">
<line x1="34" y1="84" x2="34" y2="-2.18557e-08" stroke="url(#paint0_linear_7_3310)" stroke-opacity="0.5"/>
<mask id="mask0_7_3310" style="mask-type:alpha" maskUnits="userSpaceOnUse" x="16" y="116" width="36" height="62">
<path d="M16.52 130.228C16.52 127.54 17.192 125.14 18.536 123.028C19.912 120.916 21.896 119.252 24.488 118.036C27.112 116.82 30.216 116.212 33.8 116.212C37.384 116.212 40.472 116.82 43.064 118.036C45.688 119.252 47.672 120.916 49.016 123.028C50.392 125.14 51.08 127.54 51.08 130.228C51.08 132.916 50.392 135.316 49.016 137.428C47.672 139.572 45.688 141.252 43.064 142.468C40.472 143.684 37.384 144.292 33.8 144.292C30.216 144.292 27.112 143.684 24.488 142.468C21.896 141.252 19.912 139.572 18.536 137.428C17.192 135.316 16.52 132.916 16.52 130.228ZM21.944 130.228C21.944 132.628 22.936 134.516 24.92 135.892C26.904 137.3 29.864 138.004 33.8 138.004C37.736 138.004 40.696 137.3 42.68 135.892C44.664 134.516 45.656 132.628 45.656 130.228C45.656 127.86 44.664 125.972 42.68 124.564C40.696 123.188 37.736 122.5 33.8 122.5C29.864 122.5 26.904 123.188 24.92 124.564C22.936 125.972 21.944 127.86 21.944 130.228ZM22.28 177.41H17L17 152.642H21.176L33.848 165.986C35.288 167.49 36.536 168.498 37.592 169.01C38.68 169.554 39.752 169.826 40.808 169.826C42.376 169.826 43.576 169.298 44.408 168.242C45.24 167.186 45.656 165.634 45.656 163.586C45.656 160.162 44.488 157.538 42.152 155.714L45.512 151.346C47.272 152.658 48.632 154.418 49.592 156.626C50.584 158.866 51.08 161.362 51.08 164.114C51.08 167.762 50.216 170.674 48.488 172.85C46.76 175.026 44.408 176.115 41.432 176.115C39.608 176.115 37.896 175.73 36.296 174.962C34.696 174.194 32.872 172.722 30.824 170.546L22.28 161.57L22.28 177.41Z" fill="white"/>
</mask>
<g mask="url(#mask0_7_3310)">
<path d="M16.52 130.228C16.52 127.54 17.192 125.14 18.536 123.028C19.912 120.916 21.896 119.252 24.488 118.036C27.112 116.82 30.216 116.212 33.8 116.212C37.384 116.212 40.472 116.82 43.064 118.036C45.688 119.252 47.672 120.916 49.016 123.028C50.392 125.14 51.08 127.54 51.08 130.228C51.08 132.916 50.392 135.316 49.016 137.428C47.672 139.572 45.688 141.252 43.064 142.468C40.472 143.684 37.384 144.292 33.8 144.292C30.216 144.292 27.112 143.684 24.488 142.468C21.896 141.252 19.912 139.572 18.536 137.428C17.192 135.316 16.52 132.916 16.52 130.228ZM21.944 130.228C21.944 132.628 22.936 134.516 24.92 135.892C26.904 137.3 29.864 138.004 33.8 138.004C37.736 138.004 40.696 137.3 42.68 135.892C44.664 134.516 45.656 132.628 45.656 130.228C45.656 127.86 44.664 125.972 42.68 124.564C40.696 123.188 37.736 122.5 33.8 122.5C29.864 122.5 26.904 123.188 24.92 124.564C22.936 125.972 21.944 127.86 21.944 130.228ZM22.28 177.41H17L17 152.642H21.176L33.848 165.986C35.288 167.49 36.536 168.498 37.592 169.01C38.68 169.554 39.752 169.826 40.808 169.826C42.376 169.826 43.576 169.298 44.408 168.242C45.24 167.186 45.656 165.634 45.656 163.586C45.656 160.162 44.488 157.538 42.152 155.714L45.512 151.346C47.272 152.658 48.632 154.418 49.592 156.626C50.584 158.866 51.08 161.362 51.08 164.114C51.08 167.762 50.216 170.674 48.488 172.85C46.76 175.026 44.408 176.115 41.432 176.115C39.608 176.115 37.896 175.73 36.296 174.962C34.696 174.194 32.872 172.722 30.824 170.546L22.28 161.57L22.28 177.41Z" fill="white" fill-opacity="0.5"/>
<rect width="1" height="64" transform="matrix(-1 0 0 1 19 114)" fill="#022845"/>
<rect width="1" height="64" transform="matrix(-1 0 0 1 23 114)" fill="#022845"/>
<rect width="1" height="64" transform="matrix(-1 0 0 1 27 114)" fill="#022845"/>
<rect width="1" height="64" transform="matrix(-1 0 0 1 31 114)" fill="#022845"/>
<rect width="1" height="64" transform="matrix(-1 0 0 1 35 114)" fill="#022845"/>
<rect width="1" height="64" transform="matrix(-1 0 0 1 39 114)" fill="#022845"/>
<rect width="1" height="64" transform="matrix(-1 0 0 1 43 114)" fill="#022845"/>
<rect width="1" height="64" transform="matrix(-1 0 0 1 47 114)" fill="#022845"/>
<rect width="1" height="64" transform="matrix(-1 0 0 1 51 114)" fill="#022845"/>
</g>
<line x1="35" y1="209" x2="35" y2="881" stroke="url(#paint1_linear_7_3310)" stroke-opacity="0.5"/>
<defs>
<linearGradient id="paint0_linear_7_3310" x1="35" y1="84" x2="35" y2="2.18557e-08" gradientUnits="userSpaceOnUse">
<stop stop-color="#022845"/>
<stop offset="1" stop-color="white" stop-opacity="0"/>
</linearGradient>
<linearGradient id="paint1_linear_7_3310" x1="34" y1="209" x2="34" y2="881" gradientUnits="userSpaceOnUse">
<stop stop-color="#022845"/>
<stop offset="1" stop-color="white" stop-opacity="0"/>
</linearGradient>
</defs>
</svg>
