<svg width="69" height="883" viewBox="0 0 69 883" fill="none" xmlns="http://www.w3.org/2000/svg">
<line x1="34" y1="84" x2="34" y2="-2.18557e-08" stroke="url(#paint0_linear_31_856)" stroke-opacity="0.5"/>
<mask id="mask0_31_856" style="mask-type:alpha" maskUnits="userSpaceOnUse" x="16" y="116" width="36" height="63">
<path d="M16.52 130.595C16.52 127.907 17.192 125.507 18.536 123.395C19.912 121.283 21.896 119.619 24.488 118.403C27.112 117.187 30.216 116.579 33.8 116.579C37.384 116.579 40.472 117.187 43.064 118.403C45.688 119.619 47.672 121.283 49.016 123.395C50.392 125.507 51.08 127.907 51.08 130.595C51.08 133.283 50.392 135.683 49.016 137.795C47.672 139.939 45.688 141.619 43.064 142.835C40.472 144.051 37.384 144.659 33.8 144.659C30.216 144.659 27.112 144.051 24.488 142.835C21.896 141.619 19.912 139.939 18.536 137.795C17.192 135.683 16.52 133.283 16.52 130.595ZM21.944 130.595C21.944 132.995 22.936 134.883 24.92 136.259C26.904 137.667 29.864 138.371 33.8 138.371C37.736 138.371 40.696 137.667 42.68 136.259C44.664 134.883 45.656 132.995 45.656 130.595C45.656 128.227 44.664 126.339 42.68 124.931C40.696 123.555 37.736 122.867 33.8 122.867C29.864 122.867 26.904 123.555 24.92 124.931C22.936 126.339 21.944 128.227 21.944 130.595ZM50.6 178.786H46.424L17 165.73V159.058L45.32 171.682V158.482H39.608V152.674H50.6V178.786Z" fill="white"/>
</mask>
<g mask="url(#mask0_31_856)">
<path d="M16.52 130.595C16.52 127.907 17.192 125.507 18.536 123.395C19.912 121.283 21.896 119.619 24.488 118.403C27.112 117.187 30.216 116.579 33.8 116.579C37.384 116.579 40.472 117.187 43.064 118.403C45.688 119.619 47.672 121.283 49.016 123.395C50.392 125.507 51.08 127.907 51.08 130.595C51.08 133.283 50.392 135.683 49.016 137.795C47.672 139.939 45.688 141.619 43.064 142.835C40.472 144.051 37.384 144.659 33.8 144.659C30.216 144.659 27.112 144.051 24.488 142.835C21.896 141.619 19.912 139.939 18.536 137.795C17.192 135.683 16.52 133.283 16.52 130.595ZM21.944 130.595C21.944 132.995 22.936 134.883 24.92 136.259C26.904 137.667 29.864 138.371 33.8 138.371C37.736 138.371 40.696 137.667 42.68 136.259C44.664 134.883 45.656 132.995 45.656 130.595C45.656 128.227 44.664 126.339 42.68 124.931C40.696 123.555 37.736 122.867 33.8 122.867C29.864 122.867 26.904 123.555 24.92 124.931C22.936 126.339 21.944 128.227 21.944 130.595ZM50.6 178.786H46.424L17 165.73V159.058L45.32 171.682V158.482H39.608V152.674H50.6V178.786Z" fill="white" fill-opacity="0.5"/>
<rect width="1" height="64" transform="matrix(-1 0 0 1 19 115)" fill="#022845"/>
<rect width="1" height="64" transform="matrix(-1 0 0 1 23 115)" fill="#022845"/>
<rect width="1" height="64" transform="matrix(-1 0 0 1 27 115)" fill="#022845"/>
<rect width="1" height="64" transform="matrix(-1 0 0 1 31 115)" fill="#022845"/>
<rect width="1" height="64" transform="matrix(-1 0 0 1 35 115)" fill="#022845"/>
<rect width="1" height="64" transform="matrix(-1 0 0 1 39 115)" fill="#022845"/>
<rect width="1" height="64" transform="matrix(-1 0 0 1 43 115)" fill="#022845"/>
<rect width="1" height="64" transform="matrix(-1 0 0 1 47 115)" fill="#022845"/>
<rect width="1" height="64" transform="matrix(-1 0 0 1 51 115)" fill="#022845"/>
</g>
<line x1="35" y1="211" x2="35" y2="883" stroke="url(#paint1_linear_31_856)" stroke-opacity="0.5"/>
<defs>
<linearGradient id="paint0_linear_31_856" x1="35" y1="84" x2="35" y2="2.18557e-08" gradientUnits="userSpaceOnUse">
<stop stop-color="#022845"/>
<stop offset="1" stop-color="white" stop-opacity="0"/>
</linearGradient>
<linearGradient id="paint1_linear_31_856" x1="34" y1="211" x2="34" y2="883" gradientUnits="userSpaceOnUse">
<stop stop-color="#022845"/>
<stop offset="1" stop-color="white" stop-opacity="0"/>
</linearGradient>
</defs>
</svg>
