<svg width="69" height="500" viewBox="0 0 69 500" fill="none" xmlns="http://www.w3.org/2000/svg">
<line x1="34" y1="84" x2="34" y2="-2.18557e-08" stroke="url(#paint0_linear_31_1683)" stroke-opacity="0.5"/>
<mask id="mask0_31_1683" style="mask-type:alpha" maskUnits="userSpaceOnUse" x="20" y="115" width="29" height="55">
<path d="M20.1 127.444C20.1 125.231 20.66 123.231 21.78 121.444C22.9 119.684 24.5267 118.297 26.66 117.284C28.82 116.271 31.4333 115.764 34.5 115.764C37.5667 115.764 40.1667 116.271 42.3 117.284C44.46 118.297 46.1 119.684 47.22 121.444C48.34 123.231 48.9 125.231 48.9 127.444C48.9 129.684 48.34 131.684 47.22 133.444C46.1 135.204 44.46 136.591 42.3 137.604C40.1667 138.644 37.5667 139.164 34.5 139.164C31.4333 139.164 28.82 138.644 26.66 137.604C24.5267 136.591 22.9 135.204 21.78 133.444C20.66 131.684 20.1 129.684 20.1 127.444ZM24.62 127.444C24.62 128.751 24.9667 129.884 25.66 130.844C26.38 131.804 27.4733 132.551 28.94 133.084C30.4067 133.644 32.26 133.924 34.5 133.924C36.7667 133.924 38.62 133.644 40.06 133.084C41.5267 132.551 42.6067 131.804 43.3 130.844C44.02 129.884 44.38 128.751 44.38 127.444C44.38 126.191 44.02 125.071 43.3 124.084C42.6067 123.124 41.5267 122.364 40.06 121.804C38.62 121.271 36.7667 121.004 34.5 121.004C32.26 121.004 30.4067 121.271 28.94 121.804C27.4733 122.364 26.38 123.124 25.66 124.084C24.9667 125.071 24.62 126.191 24.62 127.444ZM20.1 158.798C20.1 156.265 20.6333 154.091 21.7 152.278C22.7933 150.465 24.3667 149.078 26.42 148.118C28.4733 147.158 31.0067 146.678 34.02 146.678C37.22 146.678 39.9267 147.251 42.14 148.398C44.3533 149.571 46.0333 151.185 47.18 153.238C48.3267 155.318 48.9 157.705 48.9 160.398C48.9 161.811 48.7533 163.158 48.46 164.438C48.1667 165.745 47.7133 166.851 47.1 167.758L43.18 165.838C43.6867 165.065 44.0333 164.225 44.22 163.318C44.4333 162.438 44.54 161.505 44.54 160.518C44.54 157.878 43.7267 155.785 42.1 154.238C40.4733 152.691 38.0733 151.918 34.9 151.918C34.3933 151.918 33.7933 151.931 33.1 151.958C32.4333 151.985 31.7533 152.078 31.06 152.238L32.82 150.638C33.9133 151.118 34.82 151.771 35.54 152.598C36.2867 153.451 36.8467 154.451 37.22 155.598C37.5933 156.771 37.78 158.038 37.78 159.398C37.78 161.238 37.42 162.878 36.7 164.318C36.0067 165.758 35.0067 166.905 33.7 167.758C32.42 168.611 30.9133 169.038 29.18 169.038C27.34 169.038 25.74 168.585 24.38 167.678C23.02 166.771 21.9667 165.545 21.22 163.998C20.4733 162.451 20.1 160.718 20.1 158.798ZM24.18 158.518C24.18 159.585 24.3667 160.531 24.74 161.358C25.14 162.185 25.7 162.825 26.42 163.278C27.14 163.758 27.98 163.998 28.94 163.998C30.4067 163.998 31.5667 163.491 32.42 162.478C33.2733 161.465 33.7 160.105 33.7 158.398C33.7 157.278 33.4867 156.291 33.06 155.438C32.66 154.611 32.1 153.945 31.38 153.438C30.66 152.958 29.8333 152.718 28.9 152.718C28.0467 152.718 27.26 152.945 26.54 153.398C25.82 153.851 25.2467 154.505 24.82 155.358C24.3933 156.238 24.18 157.291 24.18 158.518Z" fill="white"/>
</mask>
<g mask="url(#mask0_31_1683)">
<path d="M20.1 127.444C20.1 125.231 20.66 123.231 21.78 121.444C22.9 119.684 24.5267 118.297 26.66 117.284C28.82 116.271 31.4333 115.764 34.5 115.764C37.5667 115.764 40.1667 116.271 42.3 117.284C44.46 118.297 46.1 119.684 47.22 121.444C48.34 123.231 48.9 125.231 48.9 127.444C48.9 129.684 48.34 131.684 47.22 133.444C46.1 135.204 44.46 136.591 42.3 137.604C40.1667 138.644 37.5667 139.164 34.5 139.164C31.4333 139.164 28.82 138.644 26.66 137.604C24.5267 136.591 22.9 135.204 21.78 133.444C20.66 131.684 20.1 129.684 20.1 127.444ZM24.62 127.444C24.62 128.751 24.9667 129.884 25.66 130.844C26.38 131.804 27.4733 132.551 28.94 133.084C30.4067 133.644 32.26 133.924 34.5 133.924C36.7667 133.924 38.62 133.644 40.06 133.084C41.5267 132.551 42.6067 131.804 43.3 130.844C44.02 129.884 44.38 128.751 44.38 127.444C44.38 126.191 44.02 125.071 43.3 124.084C42.6067 123.124 41.5267 122.364 40.06 121.804C38.62 121.271 36.7667 121.004 34.5 121.004C32.26 121.004 30.4067 121.271 28.94 121.804C27.4733 122.364 26.38 123.124 25.66 124.084C24.9667 125.071 24.62 126.191 24.62 127.444ZM20.1 158.798C20.1 156.265 20.6333 154.091 21.7 152.278C22.7933 150.465 24.3667 149.078 26.42 148.118C28.4733 147.158 31.0067 146.678 34.02 146.678C37.22 146.678 39.9267 147.251 42.14 148.398C44.3533 149.571 46.0333 151.185 47.18 153.238C48.3267 155.318 48.9 157.705 48.9 160.398C48.9 161.811 48.7533 163.158 48.46 164.438C48.1667 165.745 47.7133 166.851 47.1 167.758L43.18 165.838C43.6867 165.065 44.0333 164.225 44.22 163.318C44.4333 162.438 44.54 161.505 44.54 160.518C44.54 157.878 43.7267 155.785 42.1 154.238C40.4733 152.691 38.0733 151.918 34.9 151.918C34.3933 151.918 33.7933 151.931 33.1 151.958C32.4333 151.985 31.7533 152.078 31.06 152.238L32.82 150.638C33.9133 151.118 34.82 151.771 35.54 152.598C36.2867 153.451 36.8467 154.451 37.22 155.598C37.5933 156.771 37.78 158.038 37.78 159.398C37.78 161.238 37.42 162.878 36.7 164.318C36.0067 165.758 35.0067 166.905 33.7 167.758C32.42 168.611 30.9133 169.038 29.18 169.038C27.34 169.038 25.74 168.585 24.38 167.678C23.02 166.771 21.9667 165.545 21.22 163.998C20.4733 162.451 20.1 160.718 20.1 158.798ZM24.18 158.518C24.18 159.585 24.3667 160.531 24.74 161.358C25.14 162.185 25.7 162.825 26.42 163.278C27.14 163.758 27.98 163.998 28.94 163.998C30.4067 163.998 31.5667 163.491 32.42 162.478C33.2733 161.465 33.7 160.105 33.7 158.398C33.7 157.278 33.4867 156.291 33.06 155.438C32.66 154.611 32.1 153.945 31.38 153.438C30.66 152.958 29.8333 152.718 28.9 152.718C28.0467 152.718 27.26 152.945 26.54 153.398C25.82 153.851 25.2467 154.505 24.82 155.358C24.3933 156.238 24.18 157.291 24.18 158.518Z" fill="#E1E5ED"/>
<rect width="1" height="64" transform="matrix(-1 0 0 1 21.5 110)" fill="#FF1B0E"/>
<rect width="1" height="64" transform="matrix(-1 0 0 1 25.5 110)" fill="#FF1B0E"/>
<rect width="1" height="64" transform="matrix(-1 0 0 1 29.5 110)" fill="#FF1B0E"/>
<rect width="1" height="64" transform="matrix(-1 0 0 1 33.5 110)" fill="#FF1B0E"/>
<rect width="1" height="64" transform="matrix(-1 0 0 1 37.5 110)" fill="#FF1B0E"/>
<rect width="1" height="64" transform="matrix(-1 0 0 1 41.5 110)" fill="#FF1B0E"/>
<rect width="1" height="64" transform="matrix(-1 0 0 1 45.5 110)" fill="#FF1B0E"/>
<rect width="1" height="64" transform="matrix(-1 0 0 1 49.5 110)" fill="#FF1B0E"/>
</g>
<line x1="35" y1="200" x2="35" y2="500" stroke="url(#paint1_linear_31_1683)" stroke-opacity="0.5"/>
<defs>
<linearGradient id="paint0_linear_31_1683" x1="35" y1="84" x2="35" y2="2.18557e-08" gradientUnits="userSpaceOnUse">
<stop stop-color="white"/>
<stop offset="1" stop-color="white" stop-opacity="0"/>
</linearGradient>
<linearGradient id="paint1_linear_31_1683" x1="34" y1="200" x2="34" y2="500" gradientUnits="userSpaceOnUse">
<stop stop-color="white"/>
<stop offset="1" stop-color="white" stop-opacity="0"/>
</linearGradient>
</defs>
</svg>
