<svg width="69" height="881" viewBox="0 0 69 881" fill="none" xmlns="http://www.w3.org/2000/svg">
<line x1="34" y1="84" x2="34" y2="-2.18557e-08" stroke="url(#paint0_linear_9_4085)" stroke-opacity="0.5"/>
<mask id="mask0_9_4085" style="mask-type:alpha" maskUnits="userSpaceOnUse" x="16" y="116" width="36" height="61">
<path d="M16.52 130.345C16.52 127.657 17.192 125.257 18.536 123.145C19.912 121.033 21.896 119.369 24.488 118.153C27.112 116.937 30.216 116.329 33.8 116.329C37.384 116.329 40.472 116.937 43.064 118.153C45.688 119.369 47.672 121.033 49.016 123.145C50.392 125.257 51.08 127.657 51.08 130.345C51.08 133.033 50.392 135.433 49.016 137.545C47.672 139.689 45.688 141.369 43.064 142.585C40.472 143.801 37.384 144.409 33.8 144.409C30.216 144.409 27.112 143.801 24.488 142.585C21.896 141.369 19.912 139.689 18.536 137.545C17.192 135.433 16.52 133.033 16.52 130.345ZM21.944 130.345C21.944 132.745 22.936 134.633 24.92 136.009C26.904 137.417 29.864 138.121 33.8 138.121C37.736 138.121 40.696 137.417 42.68 136.009C44.664 134.633 45.656 132.745 45.656 130.345C45.656 127.977 44.664 126.089 42.68 124.681C40.696 123.305 37.736 122.617 33.8 122.617C29.864 122.617 26.904 123.305 24.92 124.681C22.936 126.089 21.944 127.977 21.944 130.345ZM36.728 167.261C36.344 170.365 35.288 172.733 33.56 174.365C31.832 175.997 29.672 176.813 27.08 176.813C25.128 176.813 23.352 176.317 21.752 175.325C20.152 174.333 18.872 172.829 17.912 170.813C16.984 168.829 16.52 166.397 16.52 163.517C16.52 161.117 16.856 158.797 17.528 156.557C18.232 154.349 19.192 152.461 20.408 150.893L25.256 153.581C24.232 154.797 23.416 156.269 22.808 157.997C22.232 159.757 21.944 161.565 21.944 163.421C21.944 165.629 22.392 167.357 23.288 168.605C24.216 169.885 25.464 170.525 27.032 170.525C28.6 170.525 29.816 169.917 30.68 168.701C31.576 167.517 32.024 165.693 32.024 163.229V160.157H36.296L45.368 167.789V152.525H50.6V175.421H46.424L36.728 167.261Z" fill="white"/>
</mask>
<g mask="url(#mask0_9_4085)">
<path d="M16.52 130.345C16.52 127.657 17.192 125.257 18.536 123.145C19.912 121.033 21.896 119.369 24.488 118.153C27.112 116.937 30.216 116.329 33.8 116.329C37.384 116.329 40.472 116.937 43.064 118.153C45.688 119.369 47.672 121.033 49.016 123.145C50.392 125.257 51.08 127.657 51.08 130.345C51.08 133.033 50.392 135.433 49.016 137.545C47.672 139.689 45.688 141.369 43.064 142.585C40.472 143.801 37.384 144.409 33.8 144.409C30.216 144.409 27.112 143.801 24.488 142.585C21.896 141.369 19.912 139.689 18.536 137.545C17.192 135.433 16.52 133.033 16.52 130.345ZM21.944 130.345C21.944 132.745 22.936 134.633 24.92 136.009C26.904 137.417 29.864 138.121 33.8 138.121C37.736 138.121 40.696 137.417 42.68 136.009C44.664 134.633 45.656 132.745 45.656 130.345C45.656 127.977 44.664 126.089 42.68 124.681C40.696 123.305 37.736 122.617 33.8 122.617C29.864 122.617 26.904 123.305 24.92 124.681C22.936 126.089 21.944 127.977 21.944 130.345ZM36.728 167.261C36.344 170.365 35.288 172.733 33.56 174.365C31.832 175.997 29.672 176.813 27.08 176.813C25.128 176.813 23.352 176.317 21.752 175.325C20.152 174.333 18.872 172.829 17.912 170.813C16.984 168.829 16.52 166.397 16.52 163.517C16.52 161.117 16.856 158.797 17.528 156.557C18.232 154.349 19.192 152.461 20.408 150.893L25.256 153.581C24.232 154.797 23.416 156.269 22.808 157.997C22.232 159.757 21.944 161.565 21.944 163.421C21.944 165.629 22.392 167.357 23.288 168.605C24.216 169.885 25.464 170.525 27.032 170.525C28.6 170.525 29.816 169.917 30.68 168.701C31.576 167.517 32.024 165.693 32.024 163.229V160.157H36.296L45.368 167.789V152.525H50.6V175.421H46.424L36.728 167.261Z" fill="white" fill-opacity="0.5"/>
<rect width="1" height="64" transform="matrix(-1 0 0 1 19 114)" fill="#022845"/>
<rect width="1" height="64" transform="matrix(-1 0 0 1 23 114)" fill="#022845"/>
<rect width="1" height="64" transform="matrix(-1 0 0 1 27 114)" fill="#022845"/>
<rect width="1" height="64" transform="matrix(-1 0 0 1 31 114)" fill="#022845"/>
<rect width="1" height="64" transform="matrix(-1 0 0 1 35 114)" fill="#022845"/>
<rect width="1" height="64" transform="matrix(-1 0 0 1 39 114)" fill="#022845"/>
<rect width="1" height="64" transform="matrix(-1 0 0 1 43 114)" fill="#022845"/>
<rect width="1" height="64" transform="matrix(-1 0 0 1 47 114)" fill="#022845"/>
<rect width="1" height="64" transform="matrix(-1 0 0 1 51 114)" fill="#022845"/>
</g>
<line x1="35" y1="209" x2="35" y2="881" stroke="url(#paint1_linear_9_4085)" stroke-opacity="0.5"/>
<defs>
<linearGradient id="paint0_linear_9_4085" x1="35" y1="84" x2="35" y2="2.18557e-08" gradientUnits="userSpaceOnUse">
<stop stop-color="#022845"/>
<stop offset="1" stop-color="white" stop-opacity="0"/>
</linearGradient>
<linearGradient id="paint1_linear_9_4085" x1="34" y1="209" x2="34" y2="881" gradientUnits="userSpaceOnUse">
<stop stop-color="#022845"/>
<stop offset="1" stop-color="white" stop-opacity="0"/>
</linearGradient>
</defs>
</svg>
