<svg width="407" height="148" viewBox="0 0 407 148" fill="none" xmlns="http://www.w3.org/2000/svg">
<path fill-rule="evenodd" clip-rule="evenodd" d="M197.029 4.95532H209.974V48.5901V110.159V153.793H197.029V125.105V111.432V78.1188V48.5901V4.95532Z" fill="#FD1B0E"/>
<path fill-rule="evenodd" clip-rule="evenodd" d="M175.852 4.95532H188.797V48.5901V110.159V153.793H175.852V125.105V111.432V78.1188V48.5901V4.95532Z" fill="#FD1B0E"/>
<path fill-rule="evenodd" clip-rule="evenodd" d="M154.674 4.95532H167.619V48.5901V110.159V153.793H154.674V125.105V111.432V78.1188V48.5901V4.95532Z" fill="#FD1B0E"/>
<path fill-rule="evenodd" clip-rule="evenodd" d="M133.504 4.95532H146.449V48.5901V110.159V153.793H133.504V125.105V111.432V78.1188V48.5901V4.95532Z" fill="#FD1B0E"/>
<path fill-rule="evenodd" clip-rule="evenodd" d="M112.332 4.95532H125.277V48.5901V110.159V153.793H112.332V125.105V111.432V78.1188V48.5901V4.95532Z" fill="#FD1B0E"/>
<path fill-rule="evenodd" clip-rule="evenodd" d="M91.156 4.95532H104.101V48.5901V110.159V153.793H91.156V125.105V111.432V78.1188V48.5901V4.95532Z" fill="#FD1B0E"/>
<path fill-rule="evenodd" clip-rule="evenodd" d="M69.9824 4.95532H82.9276V48.5901V110.159V153.793H69.9824V125.105V111.432V78.1188V48.5901V4.95532Z" fill="#FD1B0E"/>
<path fill-rule="evenodd" clip-rule="evenodd" d="M48.8066 4.95532H61.7518V48.5901V110.159V153.793H48.8066V125.105V111.432V78.1188V48.5901V4.95532Z" fill="#FD1B0E"/>
<path fill-rule="evenodd" clip-rule="evenodd" d="M218.201 4.95532H231.147V48.5901V110.159V153.793H218.201V125.105V111.432V78.1188V48.5901V4.95532Z" fill="#FD1B0E"/>
<path fill-rule="evenodd" clip-rule="evenodd" d="M239.379 4.95532H252.324V48.5901V110.159V153.793H239.379V125.105V111.432V78.1188V48.5901V4.95532Z" fill="#FD1B0E"/>
<path fill-rule="evenodd" clip-rule="evenodd" d="M260.547 4.95532H273.492V48.5901V110.159V153.793H260.547V125.105V111.432V78.1188V48.5901V4.95532Z" fill="#FD1B0E"/>
<path fill-rule="evenodd" clip-rule="evenodd" d="M281.721 4.95532H294.666V48.5901V110.159V153.793H281.721V125.105V111.432V78.1188V48.5901V4.95532Z" fill="#FD1B0E"/>
<path fill-rule="evenodd" clip-rule="evenodd" d="M302.896 4.95532H315.842V48.5901V110.159V153.793H302.896V125.105V111.432V78.1188V48.5901V4.95532Z" fill="#FD1B0E"/>
<path fill-rule="evenodd" clip-rule="evenodd" d="M324.072 4.95532H337.017V48.5901V110.159V153.793H324.072V125.105V111.432V78.1188V48.5901V4.95532Z" fill="#FD1B0E"/>
<path fill-rule="evenodd" clip-rule="evenodd" d="M345.242 4.95532H358.187V48.5901V110.159V153.793H345.242V125.105V111.432V78.1188V48.5901V4.95532Z" fill="#FD1B0E"/>
<path fill-rule="evenodd" clip-rule="evenodd" d="M366.416 4.95532H379.359V153.793H366.416V110.159V48.5901V4.95532Z" fill="#FD1B0E"/>
<path fill-rule="evenodd" clip-rule="evenodd" d="M0 145.652H3.23628V13.0959H0L0 0L19.4129 0V13.0959H16.179V145.652H19.4129V158.748H0L0 145.652Z" fill="#FD1B0E"/>
<path fill-rule="evenodd" clip-rule="evenodd" d="M387.588 145.652H390.822V13.0959H387.588V0L407.001 0V13.0959H403.767V145.652H407.001V158.748H387.588V145.652Z" fill="#FD1B0E"/>
<path fill-rule="evenodd" clip-rule="evenodd" d="M27.6426 4.95532H40.5853V33.6438V47.319V86.2311V125.105V153.793H27.6426V4.95532Z" fill="#FD1B0E"/>
</svg>
