<svg width="133" height="52" viewBox="0 0 133 52" fill="none" xmlns="http://www.w3.org/2000/svg">
<g id="Group 82">
<path id="Vector" fill-rule="evenodd" clip-rule="evenodd" d="M64.0234 1.61011H68.2299V15.7891V35.7956V49.9746H64.0234V40.6524V36.2094V25.3844V15.7891V1.61011Z" fill="#0C274A"/>
<path id="Vector_2" fill-rule="evenodd" clip-rule="evenodd" d="M57.1426 1.61011H61.3491V15.7891V35.7956V49.9746H57.1426V40.6524V36.2094V25.3844V15.7891V1.61011Z" fill="#0C274A"/>
<path id="Vector_3" fill-rule="evenodd" clip-rule="evenodd" d="M50.2617 1.61011H54.4682V15.7891V35.7956V49.9746H50.2617V40.6524V36.2094V25.3844V15.7891V1.61011Z" fill="#0C274A"/>
<path id="Vector_4" fill-rule="evenodd" clip-rule="evenodd" d="M43.3828 1.61011H47.5893V15.7891V35.7956V49.9746H43.3828V40.6524V36.2094V25.3844V15.7891V1.61011Z" fill="#0C274A"/>
<path id="Vector_5" fill-rule="evenodd" clip-rule="evenodd" d="M36.502 1.61011H40.7084V15.7891V35.7956V49.9746H36.502V40.6524V36.2094V25.3844V15.7891V1.61011Z" fill="#0C274A"/>
<path id="Vector_6" fill-rule="evenodd" clip-rule="evenodd" d="M29.6211 1.61011H33.8276V15.7891V35.7956V49.9746H29.6211V40.6524V36.2094V25.3844V15.7891V1.61011Z" fill="#0C274A"/>
<path id="Vector_7" fill-rule="evenodd" clip-rule="evenodd" d="M22.7402 1.61011H26.9467V15.7891V35.7956V49.9746H22.7402V40.6524V36.2094V25.3844V15.7891V1.61011Z" fill="#0C274A"/>
<path id="Vector_8" fill-rule="evenodd" clip-rule="evenodd" d="M15.8594 1.61011H20.0659V15.7891V35.7956V49.9746H15.8594V40.6524V36.2094V25.3844V15.7891V1.61011Z" fill="#0C274A"/>
<path id="Vector_9" fill-rule="evenodd" clip-rule="evenodd" d="M70.9043 1.61011H75.1108V15.7891V35.7956V49.9746H70.9043V40.6524V36.2094V25.3844V15.7891V1.61011Z" fill="#0C274A"/>
<path id="Vector_10" fill-rule="evenodd" clip-rule="evenodd" d="M77.7852 1.61011H81.9917V15.7891V35.7956V49.9746H77.7852V40.6524V36.2094V25.3844V15.7891V1.61011Z" fill="#0C274A"/>
<path id="Vector_11" fill-rule="evenodd" clip-rule="evenodd" d="M84.6641 1.61011H88.8706V15.7891V35.7956V49.9746H84.6641V40.6524V36.2094V25.3844V15.7891V1.61011Z" fill="#0C274A"/>
<path id="Vector_12" fill-rule="evenodd" clip-rule="evenodd" d="M91.5452 1.61011H95.7517V15.7891V35.7956V49.9746H91.5452V40.6524V36.2094V25.3844V15.7891V1.61011Z" fill="#0C274A"/>
<path id="Vector_13" fill-rule="evenodd" clip-rule="evenodd" d="M98.4255 1.61011H102.632V15.7891V35.7956V49.9746H98.4255V40.6524V36.2094V25.3844V15.7891V1.61011Z" fill="#0C274A"/>
<path id="Vector_14" fill-rule="evenodd" clip-rule="evenodd" d="M105.307 1.61011H109.513V15.7891V35.7956V49.9746H105.307V40.6524V36.2094V25.3844V15.7891V1.61011Z" fill="#0C274A"/>
<path id="Vector_15" fill-rule="evenodd" clip-rule="evenodd" d="M112.186 1.61011H116.392V15.7891V35.7956V49.9746H112.186V40.6524V36.2094V25.3844V15.7891V1.61011Z" fill="#0C274A"/>
<path id="Vector_16" fill-rule="evenodd" clip-rule="evenodd" d="M119.066 1.61011H123.272V49.9746H119.066V35.7956V15.7891V1.61011Z" fill="#0C274A"/>
<path id="Vector_17" fill-rule="evenodd" clip-rule="evenodd" d="M0 47.3292H1.05162V4.25549H0L0 0L6.30818 0V4.25549H5.25734V47.3292H6.30818V51.5847H0L0 47.3292Z" fill="#0C274A"/>
<path id="Vector_18" fill-rule="evenodd" clip-rule="evenodd" d="M125.945 47.3292H126.996V4.25549H125.945V0L132.253 0V4.25549H131.203V47.3292H132.253V51.5847H125.945V47.3292Z" fill="#0C274A"/>
<path id="Vector_19" fill-rule="evenodd" clip-rule="evenodd" d="M8.98242 1.61011H13.1881V10.9324V15.3761V28.0205V40.6524V49.9746H8.98242V1.61011Z" fill="#0C274A"/>
</g>
</svg>
